<?xml version="1.0" encoding="UTF-8" standalone="no"?>
<svg width="512" height="512" viewBox="0 0 512 512" xmlns="http://www.w3.org/2000/svg">
  <!-- Background gradient -->
  <defs>
    <linearGradient id="bg-gradient" x1="0%" y1="0%" x2="100%" y2="100%">
      <stop offset="0%" stop-color="#2A4365" />
      <stop offset="100%" stop-color="#4299E1" />
    </linearGradient>
    <!-- Lens flare gradient -->
    <radialGradient id="lens-flare" cx="50%" cy="50%" r="50%" fx="50%" fy="50%">
      <stop offset="0%" stop-color="#ffffff" stop-opacity="0.8" />
      <stop offset="100%" stop-color="#ffffff" stop-opacity="0" />
    </radialGradient>
  </defs>
  
  <!-- Background -->
  <rect width="512" height="512" rx="64" fill="url(#bg-gradient)" />
  
  <!-- Circular aperture/lens -->
  <circle cx="256" cy="220" r="120" fill="none" stroke="#ffffff" stroke-width="12" />
  
  <!-- Inner aperture blades -->
  <circle cx="256" cy="220" r="80" fill="none" stroke="#ffffff" stroke-width="8" stroke-dasharray="10,8" />
  
  <!-- Lens flare -->
  <circle cx="236" cy="200" r="30" fill="url(#lens-flare)" />
  
  <!-- Camera sensor grid -->
  <g transform="translate(196, 340)" fill="none" stroke="#ffffff" stroke-width="4">
    <rect x="0" y="0" width="120" height="80" />
    <line x1="0" y1="20" x2="120" y2="20" />
    <line x1="0" y1="40" x2="120" y2="40" />
    <line x1="0" y1="60" x2="120" y2="60" />
    <line x1="30" y1="0" x2="30" y2="80" />
    <line x1="60" y1="0" x2="60" y2="80" />
    <line x1="90" y1="0" x2="90" y2="80" />
  </g>
  
  <!-- Eye/Perception element -->
  <g transform="translate(256, 220)" stroke="#ffffff" stroke-width="6" fill="none">
    <ellipse cx="0" cy="0" rx="40" ry="25" />
    <circle cx="0" cy="0" r="15" fill="#ffffff" stroke="none" />
    <circle cx="5" cy="-5" r="5" fill="#2A4365" stroke="none" />
  </g>
  
  <!-- Drone propeller elements -->
  <g stroke="#ffffff" stroke-width="5" fill="none">
    <circle cx="146" cy="140" r="20" />
    <circle cx="366" cy="140" r="20" />
    <circle cx="146" cy="300" r="20" />
    <circle cx="366" cy="300" r="20" />
    <!-- Propeller lines -->
    <line x1="126" y1="140" x2="166" y2="140" />
    <line x1="146" y1="120" x2="146" y2="160" />
    <line x1="346" y1="140" x2="386" y2="140" />
    <line x1="366" y1="120" x2="366" y2="160" />
    <line x1="126" y1="300" x2="166" y2="300" />
    <line x1="146" y1="280" x2="146" y2="320" />
    <line x1="346" y1="300" x2="386" y2="300" />
    <line x1="366" y1="280" x2="366" y2="320" />
  </g>
  
  <!-- Connection lines -->
  <g stroke="#ffffff" stroke-width="3" stroke-dasharray="8,4">
    <line x1="146" y1="140" x2="256" y2="220" />
    <line x1="366" y1="140" x2="256" y2="220" />
    <line x1="146" y1="300" x2="256" y2="220" />
    <line x1="366" y1="300" x2="256" y2="220" />
  </g>
</svg> 